<svg width="591" height="591" viewBox="0 0 591 591" fill="none" xmlns="http://www.w3.org/2000/svg">
<path fill-rule="evenodd" clip-rule="evenodd" d="M484.08 66.299C407.176 67.5101 90.327 68.1689 11.0748 67.1616C6.36892 67.1025 6.01147 59.0821 10.8828 59.0821C92.578 59.1826 374.991 57.6258 483.926 59.9684C489.17 60.0747 487.746 66.2399 484.08 66.299Z" fill="#191919"/>
<path fill-rule="evenodd" clip-rule="evenodd" d="M389.712 296.635C384.406 298.925 378.768 300.354 373.012 300.868C373.565 307.633 373.491 314.434 372.794 321.186C372.718 321.55 372.515 321.876 372.222 322.106C371.929 322.335 371.564 322.454 371.192 322.44C370.82 322.427 370.465 322.282 370.19 322.032C369.914 321.782 369.735 321.443 369.686 321.074C369.134 316.457 370.424 311.455 369.494 301.095C362.584 301.281 359.347 299.14 353.276 298.315C338.18 296.254 323.67 291.105 310.652 283.191C310.265 282.894 310.01 282.457 309.943 281.975C309.876 281.492 310.002 281.002 310.294 280.612C323.652 264.299 333.924 245.689 340.606 225.692C341.395 223.432 344.009 220.396 344.021 224.286C344.053 234.259 342.889 244.226 342.889 254.214C342.889 272.34 343.371 291.731 361.03 296.286C371.86 299.072 381.939 295.539 388.642 293.748C390.235 293.308 391.416 295.81 389.712 296.635Z" fill="#191919"/>
<path fill-rule="evenodd" clip-rule="evenodd" d="M364.147 257.852C362.599 260.85 367.875 260.496 371.039 260.646C371.438 260.68 371.813 260.853 372.097 261.137C372.38 261.42 372.554 261.794 372.588 262.194C372.621 262.593 372.513 262.992 372.28 263.318C372.048 263.645 371.708 263.879 371.32 263.979C369.228 264.26 367.101 264.14 365.054 263.624C361.397 262.865 358.605 261.518 360.596 257.42C361.884 254.655 363.346 251.974 364.974 249.394C365.174 249.082 365.481 248.853 365.837 248.75C366.193 248.647 366.575 248.677 366.91 248.835C367.246 248.992 367.513 249.267 367.661 249.607C367.809 249.947 367.829 250.329 367.716 250.682C366.709 253.159 365.516 255.556 364.147 257.852Z" fill="#191919"/>
<path fill-rule="evenodd" clip-rule="evenodd" d="M384.19 246.302C384.226 248.199 384.368 251.073 381.573 251.147C379.322 251.209 378.69 249.218 378.702 246.556C378.714 241.762 384.075 240.427 384.19 246.302Z" fill="#191919"/>
<path fill-rule="evenodd" clip-rule="evenodd" d="M357.837 246.18C357.79 247.994 357.019 249.704 354.924 249.618C353.176 249.548 352.546 247.184 352.597 245.627C352.67 243.329 353.394 242.156 354.848 241.837C357.078 241.347 357.899 243.905 357.837 246.18Z" fill="#191919"/>
<path fill-rule="evenodd" clip-rule="evenodd" d="M355.814 232.652C354.643 232.517 353.458 232.711 352.392 233.214C351.327 233.716 350.422 234.505 349.781 235.494C348.162 237.887 346.431 235.922 347.046 234.504C347.835 232.78 349.156 231.355 350.815 230.437C352.473 229.519 354.383 229.158 356.263 229.406C356.682 229.477 357.058 229.709 357.31 230.053C357.562 230.396 357.67 230.825 357.612 231.246C357.553 231.668 357.333 232.051 356.997 232.314C356.662 232.576 356.237 232.697 355.814 232.652Z" fill="#191919"/>
<path fill-rule="evenodd" clip-rule="evenodd" d="M379.878 232.242C379.509 232.24 379.153 232.106 378.873 231.866C378.594 231.625 378.409 231.292 378.352 230.928C378.295 230.563 378.37 230.19 378.563 229.876C378.756 229.561 379.054 229.326 379.405 229.211C381.66 228.728 384.013 229.077 386.031 230.193C388.048 231.309 389.594 233.118 390.382 235.285C390.87 236.978 388.61 238.366 387.753 236.466C387.074 235.005 385.939 233.804 384.519 233.042C383.099 232.281 381.471 232 379.878 232.242Z" fill="#191919"/>
<path fill-rule="evenodd" clip-rule="evenodd" d="M365.804 273.743C367.074 276.603 369.328 278.913 372.157 280.253C374.986 281.592 378.201 281.872 381.219 281.042C384.331 280.038 386.946 277.89 388.536 275.032C390.126 272.174 390.573 268.82 389.786 265.646C389.425 264.168 388.102 263.654 386.512 264.907C379.863 270.148 374.941 270.966 367.083 271.096C365.807 271.116 365.06 272.26 365.804 273.743Z" fill="#191919"/>
<path fill-rule="evenodd" clip-rule="evenodd" d="M150.918 330.631C151.621 331.963 149.654 333.393 148.555 332.404C142.195 326.646 130.55 318.519 127.265 310.839C122.834 300.499 125.253 287.552 116.485 279.186C116.169 278.915 115.97 278.534 115.927 278.12C115.885 277.706 116.004 277.292 116.259 276.963C116.514 276.635 116.885 276.417 117.297 276.355C117.708 276.293 118.127 276.391 118.468 276.63C128.157 283.445 126.32 296.789 130.807 306.467C135.356 316.265 145.932 321.205 150.918 330.631Z" fill="#191919"/>
<path fill-rule="evenodd" clip-rule="evenodd" d="M86.1145 315.544C77.076 313.751 68.6219 309.748 61.507 303.893C59.2235 301.881 61.9589 300.259 63.625 301.385C70.701 306.384 78.7992 309.749 87.3345 311.237C95.6653 312.469 104.146 312.251 112.403 310.593C114.438 310.321 114.394 313.299 112.994 314.137C106.625 317.963 93.2634 317.118 86.1145 315.544Z" fill="#191919"/>
<path fill-rule="evenodd" clip-rule="evenodd" d="M48.5533 310.936C47.2889 309.55 49.4159 307.71 50.8043 308.714C60.2848 315.989 71.1701 321.219 82.7734 324.076C91.8365 326.144 89.3226 330.386 81.1871 328.708C68.7218 326.333 57.3113 320.119 48.5533 310.936Z" fill="#191919"/>
<path fill-rule="evenodd" clip-rule="evenodd" d="M83.766 343.309C72.9984 342.686 58.0861 337.723 50.0038 330.639C49.7195 330.38 49.5372 330.028 49.4898 329.646C49.4423 329.264 49.5328 328.878 49.7449 328.557C49.957 328.237 50.2768 328.002 50.6465 327.896C51.0163 327.79 51.4117 327.82 51.7614 327.98C64.0475 334.001 70.5996 337.058 84.3302 338.763C92.3003 339.755 92.067 343.79 83.766 343.309Z" fill="#191919"/>
<path fill-rule="evenodd" clip-rule="evenodd" d="M131.356 357.092C133.522 358.569 131.061 362.205 128.854 360.9C117.209 354.043 103.948 358.241 91.2989 358.22C78.965 358.429 66.8823 354.724 56.7863 347.636C55.33 346.546 56.934 344.365 58.4731 345.072C70.0326 350.909 82.8722 353.753 95.8157 353.343C107.771 352.619 120.727 349.854 131.356 357.092Z" fill="#191919"/>
<path fill-rule="evenodd" clip-rule="evenodd" d="M579.515 531.76C461.277 533.198 124.627 530.235 52.7186 529.396C48.0866 529.343 44.4117 524.114 52.5857 524.079C145.049 523.603 441.819 523.716 579.343 524.983C584.758 525.018 584.773 531.695 579.515 531.76Z" fill="#288DC1"/>
<path fill-rule="evenodd" clip-rule="evenodd" d="M351.681 318.026C325.685 322.161 275.891 349.956 248.775 385.816C274.476 381.925 350.278 381.261 372.061 383.816C363.865 373.835 354.789 364.611 344.943 356.254C348.724 351.921 352.281 348.55 355.391 345.584C349.167 341.744 338.934 335.617 334.417 333.508C339.534 327.677 345.329 322.479 351.681 318.026Z" fill="#002D5C"/>
<path fill-rule="evenodd" clip-rule="evenodd" d="M408.52 346.917C411.853 350.239 414.696 354.019 416.963 358.143C407.85 363.365 390.175 373.146 379.508 384.481C389.694 385.816 396.347 390.759 399.891 405.751C401.416 412.182 403.519 422.5 405.605 434.083C424.904 429.865 444.523 427.272 464.255 426.329C460.793 417.463 456.164 409.098 450.492 401.455C449.275 399.845 451.532 397.801 452.876 399.364C459.727 407.228 465.028 416.317 468.5 426.152C477.339 425.629 486.204 425.755 495.025 426.527C497.034 426.754 497.057 429.758 494.978 429.708C465.189 428.738 435.397 431.545 406.314 438.062C409.282 454.995 412.077 473.916 412.954 487.165C458.743 486.719 533.026 509.345 544.538 482.052C570.321 420.929 492.015 324.457 436.298 316.011C441.001 322.521 444.294 329.94 445.966 337.795C439.863 339.913 416.526 345.47 408.52 346.917Z" fill="#002D5C"/>
<path fill-rule="evenodd" clip-rule="evenodd" d="M374.244 364.257C364.88 340.887 365.134 328.448 362.463 316.992C362.402 316.596 362.191 316.24 361.874 315.996C361.557 315.752 361.159 315.638 360.761 315.68C360.363 315.721 359.996 315.914 359.736 316.218C359.476 316.522 359.343 316.914 359.364 317.314C359.27 331.142 366.315 354.175 372.037 367.418C372.219 367.739 372.473 368.012 372.78 368.216C373.086 368.42 373.437 368.549 373.802 368.592C374.168 368.635 374.539 368.591 374.885 368.464C375.23 368.337 375.541 368.131 375.792 367.861C394.323 342.128 403.581 332.831 424.83 316.327C425.161 316.093 425.388 315.74 425.463 315.342C425.539 314.944 425.458 314.532 425.236 314.193C425.015 313.854 424.671 313.614 424.276 313.523C423.881 313.432 423.467 313.498 423.119 313.707C403.4 326.867 386.733 344.105 374.244 364.257Z" fill="#288DC1"/>
<path fill-rule="evenodd" clip-rule="evenodd" d="M223.583 388.488C205.356 377.374 174.459 350.034 161.792 332.738C149.062 345.723 137.738 360.014 128.006 375.375C151.066 409.382 187.584 446.069 210.47 456.727C207.811 445.389 207.134 414.049 207.811 404.047C208.487 394.044 216.026 390.045 223.583 388.488Z" fill="#002D5C"/>
<path fill-rule="evenodd" clip-rule="evenodd" d="M119.141 387.97C124.795 387.733 121.888 383.769 119.478 383.722C87.2784 383.09 52.7688 382.304 28.4921 382.682C30.368 242.401 29.2454 153.888 30.0135 74.8456C30.0342 72.7512 26.894 73.0732 26.7994 75.0672C23.7331 139.327 25.6178 312.378 23.2545 382.203C23.1718 384.596 23.3373 386.123 28.5128 386.354C43.0085 387.004 57.1349 387.03 71.7133 387.281C85.1101 387.515 106.158 388.513 119.141 387.97Z" fill="#288DC1"/>
<path fill-rule="evenodd" clip-rule="evenodd" d="M471.912 248.736C473.333 219.933 472.89 190.75 473.02 161.885C473.097 144.823 473.871 99.0107 473.679 76.5272C473.646 72.6337 469.632 74.8522 469.59 76.8226C468.813 114.998 466.802 210.321 468.261 248.777C468.385 252.015 471.767 251.967 471.912 248.736Z" fill="#288DC1"/>
<path fill-rule="evenodd" clip-rule="evenodd" d="M75.1696 160.701C75.1696 151.337 75.2494 141.978 75.1696 132.614C117.348 132.371 159.553 132.132 201.726 131.37C201.761 139.565 201.726 147.759 201.726 155.954C161.441 156.985 120.246 158.503 79.84 159.227C77.2375 159.274 77.6599 163.162 80.1768 163.194C120.976 163.688 163.027 161.085 203.953 160.024C204.494 159.968 204.993 159.705 205.345 159.289C205.696 158.873 205.873 158.337 205.838 157.794C205.838 148.226 205.805 138.655 205.87 129.086C205.813 128.541 205.546 128.039 205.126 127.685C204.707 127.331 204.167 127.154 203.619 127.19C160.043 127.216 116.438 127.81 72.8625 128.392C72.3053 128.45 71.7922 128.721 71.4308 129.149C71.0694 129.577 70.888 130.129 70.9246 130.687C71.1668 140.79 71.6809 150.87 72.0294 160.967C72.0797 163.02 75.1667 162.73 75.1696 160.701Z" fill="#288DC1"/>
<path fill-rule="evenodd" clip-rule="evenodd" d="M72.7118 228.223C116.763 226.504 162.117 226.303 205.9 223.287C206.22 223.294 206.538 223.23 206.831 223.099C207.124 222.968 207.384 222.774 207.592 222.53C207.8 222.286 207.951 221.999 208.035 221.69C208.118 221.38 208.131 221.056 208.074 220.74C207.3 214.495 206.523 208.25 205.711 202.011C205.371 199.421 201.483 200.307 201.767 202.85C202.358 208.271 203.014 213.689 203.658 219.098C160.888 220.903 117.741 222.123 75.1549 223.488C75.1549 215.018 75.1105 206.537 75.3498 198.082C118.406 197.636 160.723 196.939 204.251 197.294C204.671 197.301 205.077 197.144 205.384 196.857C205.691 196.571 205.874 196.176 205.895 195.756C205.916 195.337 205.773 194.926 205.497 194.61C205.221 194.294 204.832 194.097 204.414 194.062C160.717 192.05 116.837 192.936 72.957 193.025C72.6169 193.007 72.2765 193.056 71.9555 193.17C71.6345 193.284 71.3392 193.46 71.0865 193.688C70.8339 193.917 70.629 194.193 70.4836 194.501C70.3382 194.809 70.2551 195.143 70.2393 195.483C70.6026 205.565 70.4667 215.683 70.5022 225.777C70.4793 226.392 70.6975 226.992 71.1102 227.449C71.5228 227.906 72.0975 228.183 72.7118 228.223Z" fill="#288DC1"/>
<path fill-rule="evenodd" clip-rule="evenodd" d="M202.275 287.38C181.124 287.661 154.215 287.241 132.517 288.267C130.701 288.352 130.783 292.057 132.565 292.086C152.1 292.42 181.664 291.454 204.248 291.93C206.745 291.983 206.86 289.566 206.567 287.77C205.109 278.954 205.03 269.965 206.334 261.124C206.394 260.806 206.382 260.477 206.299 260.164C206.215 259.85 206.063 259.559 205.852 259.313C205.642 259.066 205.378 258.869 205.082 258.738C204.786 258.606 204.463 258.542 204.139 258.551C161.163 259.568 118.175 261.157 75.2021 261.845C74.6244 261.885 74.0844 262.146 73.6956 262.575C73.3067 263.005 73.0992 263.568 73.1165 264.146C73.0397 273.446 73.0575 282.757 72.9925 292.045C73.0328 292.657 73.3092 293.229 73.7634 293.64C74.2175 294.052 74.8139 294.271 75.4266 294.252C87.8338 293.797 97.603 293.865 110.013 293.099C112.081 292.972 111.907 289.241 109.856 289.235C98.2233 289.203 89.2518 289.33 77.6215 289.572C77.5772 281.771 77.5684 273.969 77.5152 266.167C118.937 264.69 160.392 264.04 201.823 262.882C200.854 271.03 201.006 279.273 202.275 287.38Z" fill="#288DC1"/>
<path fill-rule="evenodd" clip-rule="evenodd" d="M302.699 314.928C304.655 315.391 305.187 312.251 303.29 311.696C282.603 305.105 265.252 290.796 254.843 271.742C230.823 228.843 245.685 172.623 284.709 144.105C319.272 118.844 393.52 119.358 417.459 160.648C418.907 163.144 422.668 161.779 421.462 159.123C402.745 117.869 326.778 111.961 289.524 134.708C245.659 161.501 225.314 219.449 247.044 266.941C257.974 290.834 278.275 309.144 302.699 314.928Z" fill="#288DC1"/>
<path fill-rule="evenodd" clip-rule="evenodd" d="M471.566 323.571C472.317 317.202 471.649 300.234 471.676 290.305C471.676 286.743 468.332 288.051 468.211 289.543C467.5 300.876 467.47 312.241 468.122 323.577C468.255 325.27 471.372 325.243 471.566 323.571Z" fill="#288DC1"/>
<path fill-rule="evenodd" clip-rule="evenodd" d="M482.16 498.29C464.527 496.222 427.961 493.956 404.216 493.563C404.216 479.93 391.177 401.987 382.879 395.467C374.932 389.222 224.18 388.058 217.955 399.898C209.772 415.484 223.296 512.041 230.764 514.591C242.914 518.726 473.853 518.038 483.929 517.249C489.196 516.85 489.947 499.197 482.16 498.29ZM264.491 404.767C255.735 405.682 247.357 406.893 238.625 408.173C231.066 409.28 230.531 410.864 229.71 418.119C228.669 426.734 228.169 435.405 228.215 444.082C228.215 445.929 225.53 446.413 225.284 444.469C224.154 434.512 224.229 424.454 225.509 414.515C226.354 407.992 228.758 405.062 235.257 403.736C244.867 401.794 254.676 401.025 264.47 401.443C264.868 401.501 265.232 401.7 265.496 402.003C265.759 402.306 265.906 402.694 265.908 403.096C265.911 403.498 265.769 403.887 265.509 404.194C265.249 404.5 264.888 404.704 264.491 404.767ZM303.089 470.728C296.841 471.91 290.073 468.53 287.636 459.001C285.518 450.729 289.409 444.487 296.28 442.729C312.734 438.523 318.746 467.736 303.089 470.728Z" fill="#191919"/>
<path fill-rule="evenodd" clip-rule="evenodd" d="M473.894 273.507C445.801 245.67 462.548 206.644 444.581 187.758C441.183 184.096 436.595 181.758 431.634 181.163C426.674 180.568 421.663 181.754 417.495 184.509C403.655 162.002 375.426 156.554 351.391 164.043C325.197 172.205 315.812 204.183 336.839 214.475C347.858 219.869 386.542 220.327 398.636 217.985C399.604 227.999 403.35 237.543 409.451 245.543C410.077 246.296 410.952 247.339 411.991 246.429C413.116 245.416 414.438 244.647 415.875 244.172C417.312 243.697 418.832 243.525 420.339 243.668C421.846 243.81 423.307 244.264 424.629 245.001C425.951 245.738 427.106 246.741 428.02 247.948C428.861 249.19 429.448 250.586 429.747 252.056C430.047 253.525 430.053 255.04 429.766 256.512C429.478 257.984 428.903 259.385 428.073 260.634C427.242 261.883 426.173 262.956 424.927 263.791C421.314 266.18 418.739 265.832 414.691 265.628C413.424 265.566 413.188 266.626 413.102 267.595C411.853 281.669 410.467 297.727 412.615 311.724C412.67 312.112 412.875 312.464 413.185 312.704C413.496 312.944 413.888 313.053 414.278 313.008C414.668 312.964 415.025 312.768 415.273 312.465C415.521 312.161 415.641 311.772 415.607 311.381C415.637 307.588 415.495 303.795 415.371 299.999C435.148 302.211 460.19 290.643 473.953 277.418C476.133 275.347 474.574 274.18 473.894 273.507ZM367.488 177.215C362.666 177.129 357.895 178.212 353.583 180.373C348.795 182.671 340.665 188.385 341.212 194.376C341.374 196.172 338.792 197.27 338.122 195.418C334.887 186.491 343.891 179.516 349.894 176.24C355.241 173.323 361.231 171.784 367.323 171.765C375.116 171.774 371.899 177.401 367.488 177.215Z" fill="#191919"/>
</svg>
